<?xml version="1.0" encoding="UTF-8"?>
<svg width="13px" height="13px" viewBox="0 0 13 13" version="1.1" xmlns="http://www.w3.org/2000/svg" xmlns:xlink="http://www.w3.org/1999/xlink">
    <!-- Generator: Sketch 39.1 (31720) - http://www.bohemiancoding.com/sketch -->
    <title>Shape</title>
    <desc>Created with Sketch.</desc>
    <defs></defs>
    <g id="Page-1" stroke="none" stroke-width="1" fill="none" fill-rule="evenodd">
        <g id="About-dialog" transform="translate(-247.000000, -328.000000)" fill="#0FAC27">
            <path d="M253.500217,340.999567 C249.910267,340.999567 247,338.08995 247,334.5 C247,330.910483 249.910267,328 253.500217,328 C257.08995,328 260,330.910483 260,334.5 C260,338.08995 257.08995,340.999567 253.500217,340.999567 L253.500217,340.999567 Z M253.500217,328.86645 C250.388883,328.86645 247.866883,331.388667 247.866883,334.5 C247.866883,337.611117 250.388883,340.13355 253.500217,340.13355 C256.611117,340.13355 259.133333,337.611117 259.133333,334.5 C259.133333,331.388667 256.611117,328.86645 253.500217,328.86645 L253.500217,328.86645 Z M252.885967,337.409833 C252.7239,337.571467 252.460867,337.571467 252.2988,337.409833 C252.292517,337.403333 252.295117,337.393367 252.289483,337.387083 C252.285583,337.383183 252.279733,337.385133 252.275833,337.381667 L250.591683,335.697083 C250.415533,335.520933 250.415533,335.2358 250.591683,335.05965 C250.767833,334.8835 251.0534,334.8835 251.229333,335.05965 L252.645683,336.476 L256.688033,332.433217 C256.850317,332.27115 257.113133,332.27115 257.2752,332.433217 C257.437483,332.595283 257.437483,332.8581 257.2752,333.0206 L252.885967,337.409833 L252.885967,337.409833 Z" id="Shape"></path>
        </g>
    </g>
</svg>